<svg width="30" height="30" viewBox="0 0 30 30" fill="none" xmlns="http://www.w3.org/2000/svg">
<path d="M25.3125 0C24.7947 0 24.375 0.419733 24.375 0.9375C24.375 1.45527 24.7947 1.875 25.3125 1.875H28.125V7.03125H27.1875C26.6697 7.03125 26.25 7.45098 26.25 7.96875C26.25 8.48652 26.6697 8.90625 27.1875 8.90625H28.125V14.0625H25.3125C24.7947 14.0625 24.375 14.4822 24.375 15C24.375 15.5178 24.7947 15.9375 25.3125 15.9375H28.125V21.0938H27.1875C26.6697 21.0938 26.25 21.5135 26.25 22.0312C26.25 22.549 26.6697 22.9688 27.1875 22.9688H28.125V28.125H25.3125C24.7947 28.125 24.375 28.5447 24.375 29.0625C24.375 29.5803 24.7947 30 25.3125 30H29.0625C29.5803 30 30 29.5803 30 29.0625V0.9375C30 0.419733 29.5803 0 29.0625 0H25.3125Z" fill="#868893"/>
<path d="M13.125 2.8125L13.8067 2.16893C13.6296 1.98132 13.383 1.875 13.125 1.875C12.867 1.875 12.6204 1.98132 12.4433 2.16893L12.4418 2.1705L12.4387 2.1738L12.4277 2.18554L12.387 2.22922C12.3518 2.26718 12.3006 2.32266 12.2351 2.39459C12.1041 2.53843 11.9156 2.74814 11.6824 3.01515C11.2162 3.5489 10.5701 4.31298 9.84691 5.23847C8.40625 7.08204 6.63423 9.59776 5.37593 12.2272C4.43998 14.1831 3.75 16.2797 3.75 18.25C3.75 23.6522 7.89721 28.125 13.125 28.125C18.3528 28.125 22.5 23.6522 22.5 18.25C22.5 16.2797 21.81 14.1831 20.8741 12.2272C19.6158 9.59776 17.8438 7.08204 16.4031 5.23847C15.6799 4.31298 15.0338 3.5489 14.5676 3.01515C14.3344 2.74814 14.1459 2.53843 14.0149 2.39459C13.9494 2.32266 13.8982 2.26718 13.863 2.22922L13.8223 2.18554L13.8113 2.1738L13.8082 2.1705C13.8082 2.1705 13.8067 2.16893 13.125 2.8125ZM13.125 2.8125C12.4433 2.16893 12.4433 2.16893 12.4433 2.16893L13.125 2.8125ZM13.0946 4.24857L13.125 4.21375L13.1554 4.24857C13.6035 4.76159 14.2272 5.49913 14.9257 6.39299C16.071 7.85862 17.4009 9.72342 18.4897 11.6944H7.76028C8.84912 9.72342 10.179 7.85862 11.3243 6.39299C12.0228 5.49913 12.6465 4.76159 13.0946 4.24857ZM5.625 18.25C5.625 16.8343 6.08161 15.2271 6.82087 13.5694H19.4291C20.1684 15.2271 20.625 16.8343 20.625 18.25C20.625 22.7199 17.217 26.25 13.125 26.25C9.03298 26.25 5.625 22.7199 5.625 18.25Z" fill="#868893"/>
</svg>
