<svg width="30" height="30" viewBox="0 0 30 30" fill="none" xmlns="http://www.w3.org/2000/svg">
<path d="M14.3371 2.14959C14.7032 1.78347 15.2968 1.78347 15.6629 2.14959L18.4754 4.96209C18.8415 5.3282 18.8415 5.9218 18.4754 6.28791C18.1093 6.65403 17.5157 6.65403 17.1496 6.28791L15.9375 5.07583V8.4375C15.9375 8.95527 15.5178 9.375 15 9.375C14.4822 9.375 14.0625 8.95527 14.0625 8.4375V5.07582L12.8504 6.28791C12.4843 6.65403 11.8907 6.65403 11.5246 6.28791C11.1585 5.9218 11.1585 5.3282 11.5246 4.96209L14.3371 2.14959ZM4.3934 8.1434C4.75951 7.77728 5.35311 7.77728 5.71922 8.1434L8.37087 10.795C8.73699 11.1612 8.73699 11.7548 8.37087 12.1209C8.00476 12.487 7.41117 12.487 7.04505 12.1209L4.3934 9.46922C4.02728 9.10311 4.02728 8.50952 4.3934 8.1434ZM25.6066 8.1434C25.9727 8.50951 25.9727 9.10311 25.6066 9.46922L22.955 12.1209C22.5888 12.487 21.9952 12.487 21.6291 12.1209C21.263 11.7548 21.263 11.1612 21.6291 10.795L24.2808 8.1434C24.6469 7.77728 25.2405 7.77728 25.6066 8.1434ZM15 13.125C18.1066 13.125 20.625 15.6434 20.625 18.75C20.625 19.7758 20.3512 20.7356 19.8727 21.5625H10.1273C9.64881 20.7356 9.375 19.7758 9.375 18.75C9.375 15.6434 11.8934 13.125 15 13.125ZM21.9545 21.5625C22.3063 20.6935 22.5 19.7438 22.5 18.75C22.5 14.6079 19.1421 11.25 15 11.25C10.8579 11.25 7.5 14.6079 7.5 18.75C7.5 19.7438 7.69372 20.6935 8.04545 21.5625H0.9375C0.419733 21.5625 0 21.9822 0 22.5C0 23.0178 0.419733 23.4375 0.9375 23.4375H29.0625C29.5803 23.4375 30 23.0178 30 22.5C30 21.9822 29.5803 21.5625 29.0625 21.5625H21.9545ZM0 18.75C0 18.2322 0.419733 17.8125 0.9375 17.8125H4.6875C5.20527 17.8125 5.625 18.2322 5.625 18.75C5.625 19.2678 5.20527 19.6875 4.6875 19.6875H0.9375C0.419733 19.6875 0 19.2678 0 18.75ZM24.375 18.75C24.375 18.2322 24.7947 17.8125 25.3125 17.8125H29.0625C29.5803 17.8125 30 18.2322 30 18.75C30 19.2678 29.5803 19.6875 29.0625 19.6875H25.3125C24.7947 19.6875 24.375 19.2678 24.375 18.75Z" fill="#868893"/>
</svg>
