<svg width="30" height="30" viewBox="0 0 30 30" fill="none" xmlns="http://www.w3.org/2000/svg">
<path d="M15 26.25C16.5533 26.25 17.8125 24.9907 17.8125 23.4375C17.8125 21.8842 16.5533 20.625 15 20.625C13.4467 20.625 12.1875 21.8842 12.1875 23.4375C12.1875 24.9907 13.4467 26.25 15 26.25Z" fill="#868893"/>
<path d="M15 0C12.4112 0 10.3125 2.09867 10.3125 4.6875V18.8447C9.15367 20.0274 8.4375 21.6493 8.4375 23.4375C8.4375 27.0619 11.3756 30 15 30C18.6244 30 21.5625 27.0619 21.5625 23.4375C21.5625 21.6493 20.8462 20.0274 19.6875 18.8447V4.6875C19.6875 2.09867 17.5888 0 15 0ZM12.1875 4.6875C12.1875 3.13419 13.4467 1.875 15 1.875C16.5533 1.875 17.8125 3.13419 17.8125 4.6875V19.6639L18.1248 19.9434C19.0852 20.8029 19.6875 22.0492 19.6875 23.4375C19.6875 26.0263 17.5888 28.125 15 28.125C12.4112 28.125 10.3125 26.0263 10.3125 23.4375C10.3125 22.0492 10.9147 20.8029 11.8752 19.9434L12.1875 19.6639V4.6875Z" fill="#868893"/>
</svg>
