<svg width="16" height="16" viewBox="0 0 16 16" fill="none" xmlns="http://www.w3.org/2000/svg">
<path d="M11.5318 7H15.4642C15.6762 7 15.792 7.24721 15.6563 7.41005L13.6901 9.76953C13.5901 9.88947 13.4059 9.88947 13.3059 9.76953L11.3397 7.41005C11.204 7.24721 11.3198 7 11.5318 7Z" fill="#868893"/>
<path d="M0.531728 8.99999H4.46421C4.67617 8.99999 4.79196 8.75278 4.65626 8.58994L2.69002 6.23046C2.59007 6.11052 2.40586 6.11052 2.30591 6.23046L0.339672 8.58994C0.203979 8.75278 0.319768 8.99999 0.531728 8.99999Z" fill="#868893"/>
<path fill-rule="evenodd" clip-rule="evenodd" d="M8.0029 3C6.45041 3 5.06346 3.70697 4.14558 4.81839C3.96974 5.03131 3.65459 5.06137 3.44167 4.88552C3.22875 4.70968 3.19869 4.39453 3.37454 4.18161C4.47424 2.85003 6.13952 2 8.0029 2C10.9446 2 13.3909 4.1165 13.904 6.90967C13.9095 6.9397 13.9148 6.96981 13.9199 7H12.903C12.44 4.71778 10.4215 3 8.0029 3ZM3.10282 9C3.56583 11.2822 5.58427 13 8.0029 13C9.55539 13 10.9423 12.293 11.8602 11.1816C12.0361 10.9687 12.3512 10.9386 12.5641 11.1145C12.777 11.2903 12.8071 11.6055 12.6313 11.8184C11.5316 13.15 9.86628 14 8.0029 14C5.06119 14 2.61488 11.8835 2.10181 9.09033C2.0963 9.0603 2.091 9.03019 2.08594 9H3.10282Z" fill="#868893"/>
</svg>
