<svg width="30" height="30" viewBox="0 0 30 30" fill="none" xmlns="http://www.w3.org/2000/svg">
<path d="M23.4375 3.75C20.8487 3.75 18.75 5.84866 18.75 8.4375C18.75 8.95527 18.3303 9.375 17.8125 9.375C17.2947 9.375 16.875 8.95527 16.875 8.4375C16.875 4.81313 19.8131 1.875 23.4375 1.875C27.0619 1.875 30 4.81313 30 8.4375C30 12.0619 27.0619 15 23.4375 15H0.9375C0.419733 15 0 14.5803 0 14.0625C0 13.5447 0.419733 13.125 0.9375 13.125H23.4375C26.0263 13.125 28.125 11.0263 28.125 8.4375C28.125 5.84866 26.0263 3.75 23.4375 3.75ZM10.3125 5.625C9.27697 5.625 8.4375 6.46447 8.4375 7.5C8.4375 8.01777 8.01777 8.4375 7.5 8.4375C6.98223 8.4375 6.5625 8.01777 6.5625 7.5C6.5625 5.42893 8.24143 3.75 10.3125 3.75C12.3836 3.75 14.0625 5.42893 14.0625 7.5C14.0625 9.57107 12.3836 11.25 10.3125 11.25H0.9375C0.419733 11.25 0 10.8303 0 10.3125C0 9.79473 0.419733 9.375 0.9375 9.375H10.3125C11.348 9.375 12.1875 8.53553 12.1875 7.5C12.1875 6.46447 11.348 5.625 10.3125 5.625ZM0 17.8125C0 17.2947 0.419733 16.875 0.9375 16.875H19.7656C22.8722 16.875 25.3906 19.3934 25.3906 22.5C25.3906 25.6066 22.8722 28.125 19.7656 28.125C16.659 28.125 14.1406 25.6066 14.1406 22.5C14.1406 21.9822 14.5604 21.5625 15.0781 21.5625C15.5959 21.5625 16.0156 21.9822 16.0156 22.5C16.0156 24.5711 17.6946 26.25 19.7656 26.25C21.8367 26.25 23.5156 24.5711 23.5156 22.5C23.5156 20.4289 21.8367 18.75 19.7656 18.75H0.9375C0.419733 18.75 0 18.3303 0 17.8125Z" fill="#868893"/>
</svg>
